<?xml version="1.0" encoding="UTF-8"?>
<svg xmlns="http://www.w3.org/2000/svg" xmlns:xlink="http://www.w3.org/1999/xlink" width="81pt" height="80pt" viewBox="0 0 81 80" version="1.1">
<g id="surface5934">
<path style=" stroke:none;fill-rule:evenodd;fill:rgb(0%,59.2%,90.2%);fill-opacity:0.3;" d="M 10.453125 1.539063 C 7.988281 1.617188 5.765625 2.714844 4.210938 4.898438 C 2.660156 7.082031 1.773438 10.351563 1.585938 13.203125 C 1.398438 16.054688 1.910156 18.492188 3.890625 20.554688 C 5.871094 22.617188 9.328125 24.304688 10.828125 26.675781 C 12.328125 29.042969 11.871094 32.097656 11.417969 34.84375 C 10.960938 37.585938 10.507813 40.023438 10.960938 42.074219 C 11.417969 44.121094 12.78125 45.785156 15.140625 46.398438 C 17.496094 47.015625 20.84375 46.585938 24.378906 45.757813 C 27.914063 44.925781 31.636719 43.695313 34.757813 43.894531 C 37.878906 44.09375 40.394531 45.730469 42.324219 48.300781 C 44.253906 50.871094 45.589844 54.378906 46.542969 57.957031 C 47.492188 61.53125 48.054688 65.171875 48.589844 68.265625 C 49.125 71.359375 49.636719 73.90625 50.707031 75.898438 C 51.777344 77.894531 53.410156 79.339844 55.675781 79.730469 C 57.9375 80.117188 60.832031 79.449219 63.066406 77.773438 C 65.304688 76.101563 66.882813 73.421875 67.488281 70.867188 C 68.089844 68.308594 67.714844 65.871094 68.234375 63.996094 C 68.757813 62.121094 70.175781 60.808594 72.265625 59.628906 C 74.355469 58.453125 77.113281 57.40625 78.949219 55.371094 C 80.785156 53.335938 81.695313 50.308594 81.011719 48.101563 C 80.328125 45.890625 78.050781 44.496094 75.148438 43.789063 C 72.242188 43.078125 68.707031 43.050781 65.878906 42.25 C 63.054688 41.445313 60.9375 39.863281 58.875 37.976563 C 56.8125 36.085938 54.804688 33.890625 53.585938 31.027344 C 52.367188 28.160156 51.9375 24.625 51.417969 21.746094 C 50.894531 18.867188 50.277344 16.644531 48.84375 14.796875 C 47.414063 12.949219 45.164063 11.472656 43.289063 9.480469 C 41.414063 7.484375 39.914063 4.964844 37.542969 3.304688 C 35.171875 1.644531 31.933594 0.839844 29.335938 1.324219 C 26.734375 1.804688 24.78125 3.574219 23.054688 4.121094 C 21.328125 4.671875 19.828125 4 17.722656 3.199219 C 15.621094 2.394531 12.917969 1.457031 10.453125 1.539063 Z M 10.453125 1.539063 "/>
<path style="fill:none;stroke-width:0.8;stroke-linecap:butt;stroke-linejoin:round;stroke:rgb(20.8%,23.1%,28.2%);stroke-opacity:1;stroke-miterlimit:10;" d="M 304.71875 685.808594 C 299.816406 682.738281 299.199219 678.65625 294.53125 676.175781 " transform="matrix(1,0,0,-1,-261,727)"/>
<path style="fill:none;stroke-width:1.2;stroke-linecap:butt;stroke-linejoin:round;stroke:rgb(26.7%,74.1%,19.6%);stroke-opacity:1;stroke-miterlimit:10;" d="M 304.71875 685.808594 C 299.816406 682.738281 299.199219 678.65625 294.53125 676.175781 " transform="matrix(1,0,0,-1,-261,727)"/>
<path style="fill:none;stroke-width:0.8;stroke-linecap:butt;stroke-linejoin:round;stroke:rgb(20.8%,23.1%,28.2%);stroke-opacity:1;stroke-miterlimit:10;" d="M 283.992188 686.835938 C 289.984375 682.921875 290.847656 678.964844 294.316406 676.597656 " transform="matrix(1,0,0,-1,-261,727)"/>
<path style="fill:none;stroke-width:1.2;stroke-linecap:butt;stroke-linejoin:round;stroke:rgb(26.7%,74.1%,19.6%);stroke-opacity:1;stroke-miterlimit:10;" d="M 283.992188 686.835938 C 289.984375 682.921875 290.847656 678.964844 294.316406 676.597656 " transform="matrix(1,0,0,-1,-261,727)"/>
<path style="fill:none;stroke-width:0.8;stroke-linecap:butt;stroke-linejoin:round;stroke:rgb(20.8%,23.1%,28.2%);stroke-opacity:1;stroke-miterlimit:10;" d="M 291.226563 713.582031 C 287.894531 707.878906 285.707031 705.59375 282.9375 701.191406 " transform="matrix(1,0,0,-1,-261,727)"/>
<path style="fill:none;stroke-width:0.8;stroke-linecap:butt;stroke-linejoin:round;stroke:rgb(20.8%,23.1%,28.2%);stroke-opacity:1;stroke-miterlimit:10;" d="M 272.503906 713.078125 C 276.328125 708.878906 277.660156 704.449219 282.34375 701.183594 " transform="matrix(1,0,0,-1,-261,727)"/>
<path style="fill:none;stroke-width:0.8;stroke-linecap:butt;stroke-linejoin:round;stroke:rgb(20.8%,23.1%,28.2%);stroke-opacity:1;stroke-miterlimit:10;" d="M 328.882813 673.316406 C 320.238281 671.0625 319.195313 668.8125 313.328125 667.230469 " transform="matrix(1,0,0,-1,-261,727)"/>
<path style="fill:none;stroke-width:0.8;stroke-linecap:butt;stroke-linejoin:round;stroke:rgb(20.8%,23.1%,28.2%);stroke-opacity:1;stroke-miterlimit:10;" d="M 306.347656 685.675781 C 310.355469 679.820313 309.953125 678.535156 310.414063 676.90625 C 310.878906 675.28125 312.203125 673.3125 313.1875 667.621094 " transform="matrix(1,0,0,-1,-261,727)"/>
<path style="fill:none;stroke-width:0.8;stroke-linecap:round;stroke-linejoin:round;stroke:rgb(20.8%,23.1%,28.2%);stroke-opacity:1;stroke-miterlimit:10;" d="M 297.460938 714.414063 L 297.066406 714.296875 L 296.601563 714.234375 L 296.34375 714.230469 L 296 714.152344 L 295.230469 714.140625 L 294.953125 714.097656 L 294.578125 714.097656 L 294.382813 714.132813 L 294.964844 713.261719 L 295.25 712.648438 L 295.347656 712.214844 L 295.367188 711.71875 L 295.40625 711.632813 L 295.445313 711.628906 " transform="matrix(1,0,0,-1,-261,727)"/>
<path style="fill:none;stroke-width:0.8;stroke-linecap:butt;stroke-linejoin:round;stroke:rgb(20.8%,23.1%,28.2%);stroke-opacity:1;stroke-miterlimit:10;" d="M 294.003906 714.09375 C 298.394531 712.546875 299.273438 711.109375 300.230469 710.039063 C 301.183594 708.96875 302.214844 708.265625 303.136719 707.363281 C 304.058594 706.457031 304.871094 705.351563 305.210938 703.964844 C 305.550781 702.574219 305.417969 700.898438 305.625 699.390625 C 305.832031 697.882813 306.382813 696.539063 306.28125 694.980469 C 306.179688 693.417969 305.429688 691.640625 305.761719 687.828125 " transform="matrix(1,0,0,-1,-261,727)"/>
<path style="fill:none;stroke-width:0.8;stroke-linecap:butt;stroke-linejoin:round;stroke:rgb(20.8%,23.1%,28.2%);stroke-opacity:1;stroke-miterlimit:10;" d="M 294.746094 675.832031 C 293.753906 669.6875 295.363281 666.84375 294.378906 664.023438 " transform="matrix(1,0,0,-1,-261,727)"/>
<path style="fill:none;stroke-width:0.8;stroke-linecap:round;stroke-linejoin:round;stroke:rgb(20.8%,23.1%,28.2%);stroke-opacity:1;stroke-miterlimit:10;" d="M 272.398438 714.808594 L 272.269531 714.96875 L 272.230469 714.984375 L 271.84375 714.976563 L 271.558594 714.847656 L 271.253906 714.613281 L 271.144531 714.476563 L 271.023438 714.242188 L 270.945313 713.90625 L 270.957031 713.554688 L 271.105469 713.375 L 271.242188 713.265625 L 271.410156 713.179688 L 271.925781 713.050781 L 272.191406 713.011719 L 272.386719 713.011719 L 272.59375 713.132813 L 272.871094 713.351563 L 272.980469 713.46875 L 273.15625 713.746094 L 273.195313 713.972656 L 273.1875 714.246094 L 273.070313 714.414063 L 272.980469 714.488281 L 272.664063 714.667969 L 272.476563 714.730469 " transform="matrix(1,0,0,-1,-261,727)"/>
<path style="fill:none;stroke-width:0.8;stroke-linecap:round;stroke-linejoin:round;stroke:rgb(20.8%,23.1%,28.2%);stroke-opacity:1;stroke-miterlimit:10;" d="M 282.671875 701.203125 L 282.90625 701.007813 L 282.917969 700.710938 L 282.839844 700.636719 L 282.660156 700.632813 L 282.550781 700.789063 L 282.511719 700.890625 L 282.503906 701.214844 L 282.550781 701.253906 L 282.632813 701.277344 L 282.859375 701.277344 L 282.917969 701.234375 L 282.976563 701.089844 L 282.988281 700.773438 L 282.90625 700.589844 L 282.789063 700.511719 L 282.632813 700.511719 L 282.472656 700.660156 L 282.363281 700.878906 L 282.355469 701.15625 L 282.394531 701.214844 L 282.5625 701.308594 L 282.800781 701.320313 L 282.847656 701.296875 L 282.878906 701.226563 L 282.878906 700.789063 L 282.828125 700.699219 L 282.769531 700.636719 L 282.699219 700.605469 L 282.550781 700.617188 L 282.402344 700.808594 L 282.34375 701.023438 L 282.34375 701.183594 L 282.484375 701.277344 L 282.710938 701.292969 L 282.761719 701.226563 L 282.78125 701.128906 L 282.789063 700.773438 " transform="matrix(1,0,0,-1,-261,727)"/>
<path style="fill:none;stroke-width:0.8;stroke-linecap:butt;stroke-linejoin:round;stroke:rgb(20.8%,23.1%,28.2%);stroke-opacity:1;stroke-miterlimit:10;" d="M 282.707031 700.511719 C 281.609375 695.023438 283.515625 691.785156 282.863281 688.648438 " transform="matrix(1,0,0,-1,-261,727)"/>
<path style="fill:none;stroke-width:0.8;stroke-linecap:round;stroke-linejoin:round;stroke:rgb(20.8%,23.1%,28.2%);stroke-opacity:1;stroke-miterlimit:10;" d="M 271.898438 722.246094 L 271.878906 722 L 270.058594 717.457031 L 270.082031 717.667969 L 271.121094 720.421875 L 272.3125 722.703125 L 272.460938 722.914063 L 272.59375 722.992188 L 272.699219 722.960938 L 272.765625 722.304688 L 273.175781 719.796875 L 273.285156 718.671875 L 273.308594 717.78125 " transform="matrix(1,0,0,-1,-261,727)"/>
<path style="fill:none;stroke-width:0.8;stroke-linecap:round;stroke-linejoin:round;stroke:rgb(20.8%,23.1%,28.2%);stroke-opacity:1;stroke-miterlimit:10;" d="M 272.65625 719.640625 L 271.617188 719.742188 L 270.988281 719.863281 L 270.753906 719.851563 L 270.753906 719.75 " transform="matrix(1,0,0,-1,-261,727)"/>
<path style="fill:none;stroke-width:0.8;stroke-linecap:round;stroke-linejoin:round;stroke:rgb(20.8%,23.1%,28.2%);stroke-opacity:1;stroke-miterlimit:10;" d="M 291.179688 722.324219 L 291.179688 720.746094 L 291.289063 719.074219 L 291.289063 719.921875 L 291.027344 721.210938 L 290.941406 722.003906 L 290.941406 722.59375 L 291.289063 723.171875 L 291.832031 723.707031 L 292.046875 723.785156 L 292.480469 723.796875 L 292.589844 723.785156 L 292.824219 723.640625 L 293.085938 723.273438 L 293.257813 722.828125 L 293.300781 721.980469 L 292.976563 721.570313 L 292.71875 721.425781 L 291.722656 721.179688 L 291.503906 721.167969 L 292.652344 721.15625 L 293.042969 720.957031 L 293.496094 720.621094 L 293.820313 720.242188 L 294.015625 719.875 L 294.082031 719.597656 L 294.082031 718.996094 L 293.949219 718.808594 L 293.691406 718.640625 L 293.0625 718.550781 L 292.304688 718.550781 L 291.460938 718.617188 L 291.027344 718.695313 L 290.683594 718.886719 " transform="matrix(1,0,0,-1,-261,727)"/>
<path style="fill:none;stroke-width:0.8;stroke-linecap:round;stroke-linejoin:round;stroke:rgb(20.8%,23.1%,28.2%);stroke-opacity:1;stroke-miterlimit:10;" d="M 278.523438 689.136719 L 277.738281 689.144531 L 277.597656 689.109375 L 276.933594 688.804688 L 276.328125 688.378906 L 275.957031 687.980469 L 275.726563 687.664063 L 275.519531 687.203125 L 275.445313 686.660156 L 275.429688 685.597656 L 275.570313 685.316406 L 275.839844 685.085938 L 276.148438 684.960938 L 276.417969 684.914063 L 278.292969 684.898438 L 278.304688 684.835938 " transform="matrix(1,0,0,-1,-261,727)"/>
<path style="fill:none;stroke-width:0.8;stroke-linecap:round;stroke-linejoin:round;stroke:rgb(20.8%,23.1%,28.2%);stroke-opacity:1;stroke-miterlimit:10;" d="M 281.429688 691.644531 L 281.429688 691.589844 L 281.609375 691.476563 L 282.097656 690.984375 L 282.546875 690.289063 L 282.855469 689.417969 L 282.90625 689.128906 L 282.929688 689.109375 L 282.945313 689.324219 L 283.007813 689.628906 L 283.199219 690.097656 L 283.417969 690.515625 L 283.6875 690.832031 L 284.34375 691.324219 " transform="matrix(1,0,0,-1,-261,727)"/>
<path style="fill:none;stroke-width:0.8;stroke-linecap:round;stroke-linejoin:round;stroke:rgb(20.8%,23.1%,28.2%);stroke-opacity:1;stroke-miterlimit:10;" d="M 306.238281 687.796875 L 305.542969 687.789063 L 305.261719 687.613281 L 304.929688 687.25 L 304.761719 686.945313 L 304.699219 686.628906 L 304.699219 685.871094 L 304.722656 685.789063 L 304.851563 685.660156 L 305.058594 685.578125 L 305.402344 685.527344 L 306.007813 685.535156 L 306.429688 685.710938 L 306.597656 685.816406 L 306.761719 685.976563 L 306.96875 686.238281 L 307.03125 686.378906 L 307.058594 686.5625 L 307.058594 687.078125 L 306.980469 687.320313 L 306.851563 687.492188 L 306.6875 687.605469 L 306.507813 687.644531 " transform="matrix(1,0,0,-1,-261,727)"/>
<path style="fill:none;stroke-width:0.8;stroke-linecap:round;stroke-linejoin:round;stroke:rgb(20.8%,23.1%,28.2%);stroke-opacity:1;stroke-miterlimit:10;" d="M 311.039063 689.105469 L 311.039063 688.082031 L 311.140625 686.921875 L 311.179688 686.011719 L 311.179688 685.121094 L 311.207031 685.050781 " transform="matrix(1,0,0,-1,-261,727)"/>
<path style="fill:none;stroke-width:0.8;stroke-linecap:round;stroke-linejoin:round;stroke:rgb(20.8%,23.1%,28.2%);stroke-opacity:1;stroke-miterlimit:10;" d="M 311 689.6875 L 311.179688 689.566406 L 311.707031 689.332031 L 312.21875 689.179688 L 312.628906 689.019531 L 313.15625 688.75 L 313.359375 688.613281 L 313.695313 688.273438 L 313.898438 687.953125 L 314.015625 687.628906 L 314.105469 687.226563 L 314.09375 686.316406 L 313.976563 686.097656 L 313.617188 685.695313 L 313.246094 685.480469 L 311.796875 685.101563 L 311.488281 685.050781 " transform="matrix(1,0,0,-1,-261,727)"/>
<path style="fill:none;stroke-width:0.8;stroke-linecap:round;stroke-linejoin:round;stroke:rgb(20.8%,23.1%,28.2%);stroke-opacity:1;stroke-miterlimit:10;" d="M 294.738281 676.484375 L 294.699219 676.589844 L 294.753906 676.589844 L 294.792969 676.523438 L 294.828125 676.359375 L 294.828125 676.003906 L 294.738281 675.925781 L 294.535156 675.910156 L 294.46875 675.929688 L 294.40625 676.003906 L 294.328125 676.199219 L 294.304688 676.3125 L 294.316406 676.601563 L 294.445313 676.695313 L 294.804688 676.714844 L 294.90625 676.589844 L 294.933594 676.386719 L 294.917969 675.910156 L 294.804688 675.832031 L 294.648438 675.832031 L 294.558594 675.871094 L 294.484375 675.960938 L 294.40625 676.082031 L 294.34375 676.304688 L 294.34375 676.476563 L 294.367188 676.535156 L 294.433594 676.570313 L 294.726563 676.578125 L 294.792969 676.449219 L 294.804688 676.109375 L 294.699219 676.035156 L 294.597656 676.035156 L 294.546875 676.109375 L 294.496094 676.324219 L 294.496094 676.589844 L 294.636719 676.621094 " transform="matrix(1,0,0,-1,-261,727)"/>
<path style="fill:none;stroke-width:0.8;stroke-linecap:round;stroke-linejoin:round;stroke:rgb(20.8%,23.1%,28.2%);stroke-opacity:1;stroke-miterlimit:10;" d="M 293.085938 666.699219 L 293.417969 666.601563 L 293.929688 666.25 L 294.070313 666.097656 L 294.367188 665.597656 L 294.429688 665.433594 L 294.496094 665.148438 L 294.496094 664.535156 L 294.535156 664.726563 L 294.675781 664.992188 L 295.019531 665.542969 L 295.316406 665.953125 L 295.984375 666.582031 L 296.148438 666.699219 L 296.265625 666.726563 L 296.292969 666.621094 " transform="matrix(1,0,0,-1,-261,727)"/>
<path style="fill:none;stroke-width:0.8;stroke-linecap:round;stroke-linejoin:round;stroke:rgb(20.8%,23.1%,28.2%);stroke-opacity:1;stroke-miterlimit:10;" d="M 295.316406 658.527344 L 293.648438 658.527344 L 292.730469 658.472656 L 292.714844 656.65625 L 292.367188 653.851563 L 292.367188 653.484375 L 292.398438 653.363281 L 292.714844 653.261719 L 293.316406 653.253906 L 294.199219 653.40625 " transform="matrix(1,0,0,-1,-261,727)"/>
<path style="fill:none;stroke-width:0.8;stroke-linecap:round;stroke-linejoin:round;stroke:rgb(20.8%,23.1%,28.2%);stroke-opacity:1;stroke-miterlimit:10;" d="M 294.050781 655.753906 L 292.816406 655.78125 L 292.433594 655.6875 " transform="matrix(1,0,0,-1,-261,727)"/>
<path style="fill:none;stroke-width:0.8;stroke-linecap:round;stroke-linejoin:round;stroke:rgb(20.8%,23.1%,28.2%);stroke-opacity:1;stroke-miterlimit:10;" d="M 335.472656 676.171875 L 335.507813 675.683594 L 335.523438 672.734375 L 335.523438 673.925781 L 335.304688 675.589844 L 335.304688 676.230469 L 335.324219 676.386719 L 335.40625 676.53125 L 335.65625 676.808594 L 336.039063 677.082031 L 336.554688 677.355469 L 337.457031 677.699219 L 337.921875 677.785156 L 338.457031 677.785156 L 338.523438 677.742188 L 338.554688 677.578125 " transform="matrix(1,0,0,-1,-261,727)"/>
<path style="fill:none;stroke-width:0.8;stroke-linecap:round;stroke-linejoin:round;stroke:rgb(20.8%,23.1%,28.2%);stroke-opacity:1;stroke-miterlimit:10;" d="M 336.90625 675.230469 L 335.9375 675.195313 L 335.773438 675.125 L 335.671875 675.015625 " transform="matrix(1,0,0,-1,-261,727)"/>
<path style="fill:none;stroke-width:0.8;stroke-linecap:round;stroke-linejoin:round;stroke:rgb(20.8%,23.1%,28.2%);stroke-opacity:1;stroke-miterlimit:10;" d="M 313.007813 667.429688 L 313.023438 667.128906 L 312.925781 667.121094 L 312.90625 667.460938 L 312.976563 667.558594 L 313.140625 667.695313 L 313.425781 667.738281 L 313.476563 667.574219 L 313.476563 667 L 313.40625 666.941406 L 313.15625 666.914063 L 313.074219 666.949219 L 312.941406 667.144531 L 312.890625 667.375 L 312.890625 667.582031 L 312.957031 667.652344 L 313.058594 667.710938 L 313.359375 667.726563 L 313.375 667.300781 L 313.292969 667.179688 L 313.226563 667.152344 L 313.074219 667.152344 L 313.007813 667.195313 L 312.925781 667.394531 L 312.925781 667.589844 L 312.941406 667.675781 L 313.007813 667.738281 L 313.242188 667.753906 L 313.242188 667.472656 L 313.140625 667.316406 L 312.839844 667.28125 L 312.757813 667.332031 L 312.707031 667.503906 L 312.707031 667.582031 L 312.757813 667.652344 L 312.839844 667.675781 L 313.15625 667.660156 L 313.242188 667.558594 " transform="matrix(1,0,0,-1,-261,727)"/>
<path style="fill:none;stroke-width:0.8;stroke-linecap:round;stroke-linejoin:round;stroke:rgb(20.8%,23.1%,28.2%);stroke-opacity:1;stroke-miterlimit:10;" d="M 330.523438 675.054688 L 330.257813 675.019531 L 329.792969 674.828125 L 329.492188 674.632813 L 329.042969 674.230469 L 328.859375 673.929688 L 328.84375 673.414063 L 328.941406 673.175781 L 329.191406 672.78125 L 329.558594 672.542969 L 330.058594 672.363281 L 330.792969 672.34375 L 331.175781 672.558594 L 331.425781 672.84375 L 331.558594 673.355469 L 331.558594 674 L 331.492188 674.152344 L 331.242188 674.445313 L 330.859375 674.589844 L 330.625 674.753906 L 330.359375 674.761719 L 330.257813 674.660156 " transform="matrix(1,0,0,-1,-261,727)"/>
<path style="fill:none;stroke-width:0.8;stroke-linecap:round;stroke-linejoin:round;stroke:rgb(20.8%,23.1%,28.2%);stroke-opacity:1;stroke-miterlimit:10;" d="M 323.015625 655.628906 L 322.898438 655.78125 L 322.75 655.808594 L 322.25 655.808594 L 321.933594 655.738281 L 321.234375 655.378906 L 320.449219 654.640625 L 320.035156 654.035156 L 319.71875 653.203125 L 319.683594 652.910156 L 319.699219 651.910156 L 319.96875 651.15625 L 320.167969 650.84375 L 320.382813 650.632813 L 320.5 650.546875 L 320.917969 650.390625 L 321.5 650.382813 L 321.851563 650.597656 L 322.265625 651.035156 L 322.398438 651.25 L 322.683594 652.003906 L 322.714844 652.6875 L 322.648438 652.824219 L 322.316406 652.988281 L 322.148438 653.011719 L 321.882813 652.988281 L 321.75 652.808594 L 321.734375 652.527344 L 321.917969 652.4375 L 322.183594 652.40625 L 322.851563 652.40625 L 323.28125 652.527344 L 323.484375 652.527344 L 323.582031 652.480469 " transform="matrix(1,0,0,-1,-261,727)"/>
<path style="fill:none;stroke-width:0.8;stroke-linecap:butt;stroke-linejoin:round;stroke:rgb(20.8%,23.1%,28.2%);stroke-opacity:1;stroke-miterlimit:10;" d="M 313.15625 666.914063 C 313.890625 662.867188 315.257813 660.292969 315.871094 656.941406 " transform="matrix(1,0,0,-1,-261,727)"/>
<path style="fill:none;stroke-width:0.8;stroke-linecap:round;stroke-linejoin:round;stroke:rgb(20.8%,23.1%,28.2%);stroke-opacity:1;stroke-miterlimit:10;" d="M 313.800781 659.035156 L 313.9375 659.035156 L 313.988281 659.027344 L 314.21875 658.949219 L 314.390625 658.878906 L 314.507813 658.820313 L 314.699219 658.679688 L 314.902344 658.480469 L 315.066406 658.257813 L 315.136719 658.144531 L 315.242188 658.054688 L 315.339844 657.945313 L 315.414063 657.894531 L 315.511719 657.769531 L 315.675781 657.621094 L 315.75 657.515625 L 315.804688 657.421875 L 315.800781 657.480469 L 315.769531 657.570313 L 315.75 657.675781 L 315.730469 658.453125 L 316.015625 659.351563 L 316.148438 659.726563 L 316.183594 659.804688 L 316.1875 659.964844 L 316.207031 659.988281 L 316.242188 660.003906 L 316.300781 660.097656 L 316.300781 660.050781 " transform="matrix(1,0,0,-1,-261,727)"/>
<path style="fill:none;stroke-width:0.8;stroke-linecap:round;stroke-linejoin:round;stroke:rgb(20.8%,23.1%,28.2%);stroke-opacity:1;stroke-miterlimit:10;" d="M 282.417969 701.199219 L 282.253906 701.292969 L 282.234375 701.585938 L 282.417969 701.710938 L 282.554688 701.710938 L 282.601563 701.679688 L 282.6875 701.367188 L 282.6875 700.820313 L 282.652344 700.742188 L 282.601563 700.675781 L 282.453125 700.597656 L 282.21875 700.582031 L 282.085938 700.667969 L 282.019531 700.820313 L 282.019531 701.0625 L 282.054688 701.121094 L 282.285156 701.214844 L 282.554688 701.214844 L 282.652344 701.070313 L 282.71875 700.871094 L 282.71875 700.425781 L 282.585938 700.324219 L 282.519531 700.316406 L 282.285156 700.332031 L 282.234375 700.402344 L 282.1875 700.582031 L 282.1875 700.8125 L 282.285156 701.019531 L 282.46875 701.15625 L 282.902344 701.199219 L 283.050781 700.96875 L 283.085938 700.726563 L 283.085938 700.402344 L 282.984375 700.28125 L 282.917969 700.246094 L 282.652344 700.253906 L 282.46875 700.445313 L 282.367188 700.796875 L 282.367188 701.085938 L 282.402344 701.15625 L 282.617188 701.273438 L 282.886719 701.285156 L 282.917969 701.214844 L 282.917969 700.925781 L 282.820313 700.777344 L 282.71875 700.734375 L 282.304688 700.726563 L 282.070313 700.855469 L 282.035156 700.914063 " transform="matrix(1,0,0,-1,-261,727)"/>
<path style="fill:none;stroke-width:0.8;stroke-linecap:round;stroke-linejoin:round;stroke:rgb(20.8%,23.1%,28.2%);stroke-opacity:1;stroke-miterlimit:10;" d="M 294.082031 676.425781 L 294.082031 676.589844 L 294.148438 676.707031 L 294.28125 676.804688 L 294.449219 676.804688 L 294.515625 676.664063 L 294.550781 676.433594 L 294.550781 676.03125 L 294.484375 675.996094 L 294.066406 675.972656 L 294 676.023438 L 293.949219 676.082031 L 293.917969 676.246094 L 293.917969 676.460938 L 294.148438 676.761719 L 294.332031 676.835938 L 294.582031 676.835938 L 294.800781 676.699219 L 295 676.441406 L 295.117188 676.125 L 295.148438 675.585938 L 295.101563 675.492188 L 294.914063 675.378906 L 294.550781 675.363281 L 294.351563 675.566406 L 294.265625 675.722656 L 294.214844 676.058594 L 294.214844 676.390625 L 294.316406 676.675781 L 294.53125 676.847656 L 294.648438 676.886719 L 295.050781 676.914063 L 295.164063 676.742188 L 295.214844 676.46875 L 295.214844 675.902344 L 295.066406 675.714844 L 294.851563 675.609375 L 294.5 675.59375 L 294.414063 675.601563 L 294.28125 675.765625 L 294.265625 676.246094 L 294.316406 676.367188 L 294.464844 676.527344 L 294.632813 676.5625 L 294.683594 676.46875 L 294.664063 676.1875 L 294.582031 676.117188 L 294.398438 676.074219 L 294.234375 676.082031 L 294.183594 676.160156 " transform="matrix(1,0,0,-1,-261,727)"/>
<path style="fill:none;stroke-width:0.8;stroke-linecap:round;stroke-linejoin:round;stroke:rgb(20.8%,23.1%,28.2%);stroke-opacity:1;stroke-miterlimit:10;" d="M 312.613281 667.21875 L 312.59375 667.621094 L 312.730469 667.835938 L 312.910156 667.929688 L 313.128906 667.929688 L 313.195313 667.769531 L 313.210938 667.203125 L 313.160156 667.082031 L 313.078125 666.980469 L 312.878906 666.84375 L 312.546875 666.824219 L 312.445313 666.878906 L 312.378906 666.996094 L 312.296875 667.304688 L 312.3125 667.777344 L 312.410156 667.90625 L 312.511719 668.007813 L 312.84375 668.109375 L 313.0625 668.101563 L 313.160156 667.921875 L 313.195313 667.664063 L 313.195313 667.289063 L 313.160156 667.195313 L 312.996094 667.101563 L 312.777344 667.101563 L 312.660156 667.125 L 312.480469 667.363281 L 312.394531 667.683594 L 312.410156 668.085938 L 312.644531 668.238281 L 312.777344 668.273438 L 313.128906 668.28125 L 313.246094 668.222656 L 313.460938 667.957031 L 313.613281 667.589844 L 313.660156 667.195313 L 313.644531 666.609375 L 313.496094 666.5 L 313.160156 666.492188 L 312.945313 666.703125 L 312.828125 666.996094 L 312.84375 667.398438 L 312.910156 667.511719 L 313.128906 667.683594 L 313.378906 667.769531 L 313.578125 667.769531 L 313.613281 667.707031 L 313.613281 667.195313 L 313.578125 667.058594 L 313.410156 666.859375 L 313.3125 666.800781 L 312.910156 666.765625 L 312.777344 666.808594 L 312.679688 666.921875 L 312.578125 667.175781 L 312.613281 667.546875 L 312.863281 667.71875 L 313.128906 667.785156 L 313.128906 667.390625 L 313.113281 667.3125 L 313.046875 667.253906 L 312.328125 667.082031 " transform="matrix(1,0,0,-1,-261,727)"/>
<path style="fill:none;stroke-width:0.8;stroke-linecap:round;stroke-linejoin:round;stroke:rgb(20.8%,23.1%,28.2%);stroke-opacity:1;stroke-miterlimit:10;" d="M 293.210938 715.378906 L 292.863281 715.464844 L 292.214844 715.457031 L 291.878906 715.300781 L 291.414063 714.9375 L 291.128906 714.632813 L 291.039063 714.480469 L 291.019531 714.398438 L 291.007813 714.050781 L 291.027344 713.949219 L 291.117188 713.75 L 291.226563 713.582031 L 291.480469 713.398438 L 291.710938 713.328125 L 291.976563 713.304688 L 292.566406 713.3125 L 293.101563 713.429688 L 293.316406 713.507813 L 293.644531 713.675781 L 293.773438 713.78125 L 293.949219 713.984375 L 294.027344 714.144531 L 294.070313 714.332031 L 294.058594 714.695313 L 293.941406 714.933594 L 293.753906 715.121094 L 293.398438 715.328125 L 293.199219 715.398438 L 293.132813 715.398438 " transform="matrix(1,0,0,-1,-261,727)"/>
<path style="fill:none;stroke-width:0.8;stroke-linecap:round;stroke-linejoin:round;stroke:rgb(20.8%,23.1%,28.2%);stroke-opacity:1;stroke-miterlimit:10;" d="M 316.425781 657.082031 L 315.992188 656.988281 L 315.742188 656.894531 L 315.324219 656.585938 L 315.175781 656.398438 L 315.027344 656.027344 L 314.992188 655.394531 L 315.027344 655.316406 L 315.242188 655.101563 L 315.675781 654.878906 L 316.460938 654.691406 L 316.992188 654.691406 L 317.34375 654.835938 L 317.710938 655.199219 L 317.875 655.582031 L 317.910156 656.140625 L 317.777344 656.363281 L 317.691406 656.421875 L 316.792969 656.816406 L 316.542969 657.058594 " transform="matrix(1,0,0,-1,-261,727)"/>
<path style="fill:none;stroke-width:0.8;stroke-linecap:round;stroke-linejoin:round;stroke:rgb(20.8%,23.1%,28.2%);stroke-opacity:1;stroke-miterlimit:10;" d="M 283.730469 688.503906 L 283.652344 688.636719 L 283.515625 688.6875 L 283.019531 688.695313 L 282.6875 688.597656 L 282.488281 688.5 L 282.3125 688.371094 L 282.171875 688.238281 L 282.015625 687.949219 L 281.996094 687.8125 L 282.003906 687.429688 L 282.125 687.199219 L 282.320313 687.015625 L 282.566406 686.855469 L 282.914063 686.699219 L 283.160156 686.628906 L 283.625 686.613281 L 283.722656 686.644531 L 283.910156 686.757813 L 284.167969 686.996094 L 284.335938 687.253906 L 284.414063 687.472656 L 284.414063 687.71875 L 284.128906 688.289063 L 284 688.4375 L 283.871094 688.457031 " transform="matrix(1,0,0,-1,-261,727)"/>
<path style="fill:none;stroke-width:0.8;stroke-linecap:round;stroke-linejoin:round;stroke:rgb(0%,59.2%,90.2%);stroke-opacity:1;stroke-miterlimit:10;" d="M 271.898438 722.246094 L 271.878906 722 L 270.058594 717.457031 L 270.082031 717.667969 L 271.121094 720.421875 L 272.3125 722.703125 L 272.460938 722.914063 L 272.59375 722.992188 L 272.699219 722.960938 L 272.765625 722.304688 L 273.175781 719.796875 L 273.285156 718.671875 L 273.308594 717.78125 " transform="matrix(1,0,0,-1,-261,727)"/>
<path style="fill:none;stroke-width:0.8;stroke-linecap:round;stroke-linejoin:round;stroke:rgb(0%,59.2%,90.2%);stroke-opacity:1;stroke-miterlimit:10;" d="M 272.65625 719.640625 L 271.617188 719.742188 L 270.988281 719.863281 L 270.753906 719.851563 L 270.753906 719.75 " transform="matrix(1,0,0,-1,-261,727)"/>
<path style="fill:none;stroke-width:0.8;stroke-linecap:round;stroke-linejoin:round;stroke:rgb(0%,59.2%,90.2%);stroke-opacity:1;stroke-miterlimit:10;" d="M 291.179688 722.324219 L 291.179688 720.746094 L 291.289063 719.074219 L 291.289063 719.921875 L 291.027344 721.210938 L 290.941406 722.003906 L 290.941406 722.59375 L 291.289063 723.171875 L 291.832031 723.707031 L 292.046875 723.785156 L 292.480469 723.796875 L 292.589844 723.785156 L 292.824219 723.640625 L 293.085938 723.273438 L 293.257813 722.828125 L 293.300781 721.980469 L 292.976563 721.570313 L 292.71875 721.425781 L 291.722656 721.179688 L 291.503906 721.167969 L 292.652344 721.15625 L 293.042969 720.957031 L 293.496094 720.621094 L 293.820313 720.242188 L 294.015625 719.875 L 294.082031 719.597656 L 294.082031 718.996094 L 293.949219 718.808594 L 293.691406 718.640625 L 293.0625 718.550781 L 292.304688 718.550781 L 291.460938 718.617188 L 291.027344 718.695313 L 290.683594 718.886719 " transform="matrix(1,0,0,-1,-261,727)"/>
<path style="fill:none;stroke-width:0.8;stroke-linecap:round;stroke-linejoin:round;stroke:rgb(0%,59.2%,90.2%);stroke-opacity:1;stroke-miterlimit:10;" d="M 278.523438 689.136719 L 277.738281 689.144531 L 277.597656 689.109375 L 276.933594 688.804688 L 276.328125 688.378906 L 275.957031 687.980469 L 275.726563 687.664063 L 275.519531 687.203125 L 275.445313 686.660156 L 275.429688 685.597656 L 275.570313 685.316406 L 275.839844 685.085938 L 276.148438 684.960938 L 276.417969 684.914063 L 278.292969 684.898438 L 278.304688 684.835938 " transform="matrix(1,0,0,-1,-261,727)"/>
<path style="fill:none;stroke-width:0.8;stroke-linecap:round;stroke-linejoin:round;stroke:rgb(0%,59.2%,90.2%);stroke-opacity:1;stroke-miterlimit:10;" d="M 311.039063 689.105469 L 311.039063 688.082031 L 311.140625 686.921875 L 311.179688 686.011719 L 311.179688 685.121094 L 311.207031 685.050781 " transform="matrix(1,0,0,-1,-261,727)"/>
<path style="fill:none;stroke-width:0.8;stroke-linecap:round;stroke-linejoin:round;stroke:rgb(0%,59.2%,90.2%);stroke-opacity:1;stroke-miterlimit:10;" d="M 311 689.6875 L 311.179688 689.566406 L 311.707031 689.332031 L 312.21875 689.179688 L 312.628906 689.019531 L 313.15625 688.75 L 313.359375 688.613281 L 313.695313 688.273438 L 313.898438 687.953125 L 314.015625 687.628906 L 314.105469 687.226563 L 314.09375 686.316406 L 313.976563 686.097656 L 313.617188 685.695313 L 313.246094 685.480469 L 311.796875 685.101563 L 311.488281 685.050781 " transform="matrix(1,0,0,-1,-261,727)"/>
<path style="fill:none;stroke-width:0.8;stroke-linecap:round;stroke-linejoin:round;stroke:rgb(0%,59.2%,90.2%);stroke-opacity:1;stroke-miterlimit:10;" d="M 335.472656 676.171875 L 335.507813 675.683594 L 335.523438 672.734375 L 335.523438 673.925781 L 335.304688 675.589844 L 335.304688 676.230469 L 335.324219 676.386719 L 335.40625 676.53125 L 335.65625 676.808594 L 336.039063 677.082031 L 336.554688 677.355469 L 337.457031 677.699219 L 337.921875 677.785156 L 338.457031 677.785156 L 338.523438 677.742188 L 338.554688 677.578125 " transform="matrix(1,0,0,-1,-261,727)"/>
<path style="fill:none;stroke-width:0.8;stroke-linecap:round;stroke-linejoin:round;stroke:rgb(0%,59.2%,90.2%);stroke-opacity:1;stroke-miterlimit:10;" d="M 336.90625 675.230469 L 335.9375 675.195313 L 335.773438 675.125 L 335.671875 675.015625 " transform="matrix(1,0,0,-1,-261,727)"/>
<path style="fill:none;stroke-width:0.8;stroke-linecap:round;stroke-linejoin:round;stroke:rgb(0%,59.2%,90.2%);stroke-opacity:1;stroke-miterlimit:10;" d="M 323.015625 655.628906 L 322.898438 655.78125 L 322.75 655.808594 L 322.25 655.808594 L 321.933594 655.738281 L 321.234375 655.378906 L 320.449219 654.640625 L 320.035156 654.035156 L 319.71875 653.203125 L 319.683594 652.910156 L 319.699219 651.910156 L 319.96875 651.15625 L 320.167969 650.84375 L 320.382813 650.632813 L 320.5 650.546875 L 320.917969 650.390625 L 321.5 650.382813 L 321.851563 650.597656 L 322.265625 651.035156 L 322.398438 651.25 L 322.683594 652.003906 L 322.714844 652.6875 L 322.648438 652.824219 L 322.316406 652.988281 L 322.148438 653.011719 L 321.882813 652.988281 L 321.75 652.808594 L 321.734375 652.527344 L 321.917969 652.4375 L 322.183594 652.40625 L 322.851563 652.40625 L 323.28125 652.527344 L 323.484375 652.527344 L 323.582031 652.480469 " transform="matrix(1,0,0,-1,-261,727)"/>
<path style="fill:none;stroke-width:1.2;stroke-linecap:round;stroke-linejoin:round;stroke:rgb(0%,59.2%,90.2%);stroke-opacity:1;stroke-miterlimit:10;" d="M 282.410156 687.742188 L 282.410156 688.214844 L 282.828125 688.207031 L 282.992188 687.914063 L 283.128906 687.503906 L 283.175781 687.136719 L 283.175781 686.835938 L 283.144531 686.800781 L 282.910156 686.742188 L 282.59375 686.742188 L 282.492188 686.792969 L 282.226563 687.109375 L 282.128906 687.503906 L 282.144531 688.0625 L 282.195313 688.183594 L 282.34375 688.351563 L 282.527344 688.464844 L 282.695313 688.5 L 282.925781 688.5 L 283.09375 688.394531 L 283.261719 688.191406 L 283.527344 687.683594 L 283.609375 687.324219 L 283.609375 686.945313 L 283.527344 686.816406 L 283.328125 686.75 L 282.960938 686.75 L 282.828125 686.792969 L 282.59375 686.980469 L 282.445313 687.179688 L 282.328125 687.539063 L 282.292969 688.199219 L 282.476563 688.5 L 282.742188 688.660156 L 283.292969 688.695313 L 283.460938 688.601563 L 283.761719 688.234375 L 283.878906 687.890625 L 283.859375 687.273438 L 283.726563 687.136719 L 283.578125 687.066406 L 283.242188 687.058594 L 283.078125 687.160156 L 282.945313 687.324219 L 282.777344 687.683594 L 282.742188 688.222656 L 282.761719 688.308594 L 282.859375 688.445313 L 283.078125 688.558594 L 283.261719 688.59375 L 283.660156 688.585938 L 283.792969 688.472656 L 284.011719 688.105469 L 284.160156 687.582031 L 284.160156 687.203125 L 283.808594 686.929688 L 283.511719 686.808594 L 282.945313 686.816406 L 282.59375 686.921875 L 282.359375 686.929688 " transform="matrix(1,0,0,-1,-261,727)"/>
<path style="fill:none;stroke-width:0.8;stroke-linecap:round;stroke-linejoin:round;stroke:rgb(0%,59.2%,90.2%);stroke-opacity:1;stroke-miterlimit:10;" d="M 264.953125 721.71875 L 264.261719 720.476563 L 263.621094 718.921875 " transform="matrix(1,0,0,-1,-261,727)"/>
<path style="fill:none;stroke-width:0.8;stroke-linecap:round;stroke-linejoin:round;stroke:rgb(0%,59.2%,90.2%);stroke-opacity:1;stroke-miterlimit:10;" d="M 262.910156 716.265625 L 262.714844 715.0625 L 262.59375 713.894531 " transform="matrix(1,0,0,-1,-261,727)"/>
<path style="fill:none;stroke-width:0.8;stroke-linecap:round;stroke-linejoin:round;stroke:rgb(0%,59.2%,90.2%);stroke-opacity:1;stroke-miterlimit:10;" d="M 262.648438 711.171875 L 262.863281 710.054688 L 263.175781 709.085938 " transform="matrix(1,0,0,-1,-261,727)"/>
<path style="fill:none;stroke-width:0.8;stroke-linecap:round;stroke-linejoin:round;stroke:rgb(0%,59.2%,90.2%);stroke-opacity:1;stroke-miterlimit:10;" d="M 264.632813 706.722656 L 265.179688 706.15625 L 266 705.433594 " transform="matrix(1,0,0,-1,-261,727)"/>
<path style="fill:none;stroke-width:0.8;stroke-linecap:round;stroke-linejoin:round;stroke:rgb(0%,59.2%,90.2%);stroke-opacity:1;stroke-miterlimit:10;" d="M 267.84375 704.019531 L 269.527344 702.734375 " transform="matrix(1,0,0,-1,-261,727)"/>
<path style="fill:none;stroke-width:0.8;stroke-linecap:round;stroke-linejoin:round;stroke:rgb(0%,59.2%,90.2%);stroke-opacity:1;stroke-miterlimit:10;" d="M 271.578125 700.6875 L 272.101563 699.839844 L 272.457031 698.992188 " transform="matrix(1,0,0,-1,-261,727)"/>
<path style="fill:none;stroke-width:0.8;stroke-linecap:round;stroke-linejoin:round;stroke:rgb(0%,59.2%,90.2%);stroke-opacity:1;stroke-miterlimit:10;" d="M 272.824219 697.113281 L 272.855469 696 L 272.75 694.46875 " transform="matrix(1,0,0,-1,-261,727)"/>
<path style="fill:none;stroke-width:0.8;stroke-linecap:round;stroke-linejoin:round;stroke:rgb(0%,59.2%,90.2%);stroke-opacity:1;stroke-miterlimit:10;" d="M 272.21875 690.964844 L 271.890625 688.691406 " transform="matrix(1,0,0,-1,-261,727)"/>
<path style="fill:none;stroke-width:0.8;stroke-linecap:round;stroke-linejoin:round;stroke:rgb(0%,59.2%,90.2%);stroke-opacity:1;stroke-miterlimit:10;" d="M 271.78125 686.332031 L 271.902344 685.210938 L 272.136719 684.289063 " transform="matrix(1,0,0,-1,-261,727)"/>
<path style="fill:none;stroke-width:0.8;stroke-linecap:round;stroke-linejoin:round;stroke:rgb(0%,59.2%,90.2%);stroke-opacity:1;stroke-miterlimit:10;" d="M 273.597656 681.964844 L 274.386719 681.351563 L 274.925781 681.050781 L 275.390625 680.84375 " transform="matrix(1,0,0,-1,-261,727)"/>
<path style="fill:none;stroke-width:0.8;stroke-linecap:round;stroke-linejoin:round;stroke:rgb(0%,59.2%,90.2%);stroke-opacity:1;stroke-miterlimit:10;" d="M 278.1875 680.320313 L 279.5 680.324219 " transform="matrix(1,0,0,-1,-261,727)"/>
<path style="fill:none;stroke-width:0.8;stroke-linecap:round;stroke-linejoin:round;stroke:rgb(0%,59.2%,90.2%);stroke-opacity:1;stroke-miterlimit:10;" d="M 282.617188 680.679688 L 284.3125 681.003906 " transform="matrix(1,0,0,-1,-261,727)"/>
<path style="fill:none;stroke-width:0.8;stroke-linecap:round;stroke-linejoin:round;stroke:rgb(0%,59.2%,90.2%);stroke-opacity:1;stroke-miterlimit:10;" d="M 286.367188 681.484375 L 286.351563 681.480469 L 287.328125 681.726563 " transform="matrix(1,0,0,-1,-261,727)"/>
<path style="fill:none;stroke-width:0.8;stroke-linecap:round;stroke-linejoin:round;stroke:rgb(0%,59.2%,90.2%);stroke-opacity:1;stroke-miterlimit:10;" d="M 288.578125 682.046875 L 290.632813 682.539063 " transform="matrix(1,0,0,-1,-261,727)"/>
<path style="fill:none;stroke-width:0.8;stroke-linecap:round;stroke-linejoin:round;stroke:rgb(0%,59.2%,90.2%);stroke-opacity:1;stroke-miterlimit:10;" d="M 292.828125 682.953125 L 293.566406 683.042969 L 294.265625 683.101563 " transform="matrix(1,0,0,-1,-261,727)"/>
<path style="fill:none;stroke-width:0.8;stroke-linecap:round;stroke-linejoin:round;stroke:rgb(0%,59.2%,90.2%);stroke-opacity:1;stroke-miterlimit:10;" d="M 295.574219 683.113281 L 296.46875 683.03125 L 297.210938 682.898438 " transform="matrix(1,0,0,-1,-261,727)"/>
<path style="fill:none;stroke-width:0.8;stroke-linecap:round;stroke-linejoin:round;stroke:rgb(0%,59.2%,90.2%);stroke-opacity:1;stroke-miterlimit:10;" d="M 299.226563 682.199219 L 299.761719 681.921875 L 300.222656 681.644531 L 300.71875 681.308594 L 301.324219 680.835938 " transform="matrix(1,0,0,-1,-261,727)"/>
<path style="fill:none;stroke-width:0.8;stroke-linecap:round;stroke-linejoin:round;stroke:rgb(0%,59.2%,90.2%);stroke-opacity:1;stroke-miterlimit:10;" d="M 303.535156 678.410156 L 304.09375 677.574219 L 304.683594 676.570313 " transform="matrix(1,0,0,-1,-261,727)"/>
<path style="fill:none;stroke-width:0.8;stroke-linecap:round;stroke-linejoin:round;stroke:rgb(0%,59.2%,90.2%);stroke-opacity:1;stroke-miterlimit:10;" d="M 305.910156 673.984375 L 306.339844 672.882813 L 306.753906 671.695313 " transform="matrix(1,0,0,-1,-261,727)"/>
<path style="fill:none;stroke-width:0.8;stroke-linecap:round;stroke-linejoin:round;stroke:rgb(0%,59.2%,90.2%);stroke-opacity:1;stroke-miterlimit:10;" d="M 307.347656 669.761719 L 307.675781 668.535156 " transform="matrix(1,0,0,-1,-261,727)"/>
<path style="fill:none;stroke-width:0.8;stroke-linecap:round;stroke-linejoin:round;stroke:rgb(0%,59.2%,90.2%);stroke-opacity:1;stroke-miterlimit:10;" d="M 308.285156 665.914063 L 308.714844 663.753906 " transform="matrix(1,0,0,-1,-261,727)"/>
<path style="fill:none;stroke-width:0.8;stroke-linecap:round;stroke-linejoin:round;stroke:rgb(0%,59.2%,90.2%);stroke-opacity:1;stroke-miterlimit:10;" d="M 309.199219 661.03125 L 309.453125 659.535156 " transform="matrix(1,0,0,-1,-261,727)"/>
<path style="fill:none;stroke-width:0.8;stroke-linecap:round;stroke-linejoin:round;stroke:rgb(0%,59.2%,90.2%);stroke-opacity:1;stroke-miterlimit:10;" d="M 309.820313 657.449219 L 310.199219 655.542969 " transform="matrix(1,0,0,-1,-261,727)"/>
<path style="fill:none;stroke-width:0.8;stroke-linecap:round;stroke-linejoin:round;stroke:rgb(0%,59.2%,90.2%);stroke-opacity:1;stroke-miterlimit:10;" d="M 310.898438 652.988281 L 311.234375 652.097656 L 311.613281 651.277344 " transform="matrix(1,0,0,-1,-261,727)"/>
<path style="fill:none;stroke-width:0.8;stroke-linecap:round;stroke-linejoin:round;stroke:rgb(0%,59.2%,90.2%);stroke-opacity:1;stroke-miterlimit:10;" d="M 313.242188 649.023438 L 313.691406 648.621094 L 314.226563 648.230469 L 314.660156 647.96875 L 315.234375 647.691406 " transform="matrix(1,0,0,-1,-261,727)"/>
<path style="fill:none;stroke-width:0.8;stroke-linecap:round;stroke-linejoin:round;stroke:rgb(0%,59.2%,90.2%);stroke-opacity:1;stroke-miterlimit:10;" d="M 317.917969 647.164063 L 318.898438 647.210938 " transform="matrix(1,0,0,-1,-261,727)"/>
<path style="fill:none;stroke-width:0.8;stroke-linecap:round;stroke-linejoin:round;stroke:rgb(0%,59.2%,90.2%);stroke-opacity:1;stroke-miterlimit:10;" d="M 321.566406 647.851563 L 322.484375 648.253906 L 323.277344 648.691406 " transform="matrix(1,0,0,-1,-261,727)"/>
<path style="fill:none;stroke-width:0.8;stroke-linecap:round;stroke-linejoin:round;stroke:rgb(0%,59.2%,90.2%);stroke-opacity:1;stroke-miterlimit:10;" d="M 324.980469 649.996094 L 325.722656 650.773438 L 326.332031 651.53125 " transform="matrix(1,0,0,-1,-261,727)"/>
<path style="fill:none;stroke-width:0.8;stroke-linecap:round;stroke-linejoin:round;stroke:rgb(0%,59.2%,90.2%);stroke-opacity:1;stroke-miterlimit:10;" d="M 327.515625 653.46875 L 327.820313 654.128906 L 328.117188 654.886719 " transform="matrix(1,0,0,-1,-261,727)"/>
<path style="fill:none;stroke-width:0.8;stroke-linecap:round;stroke-linejoin:round;stroke:rgb(0%,59.2%,90.2%);stroke-opacity:1;stroke-miterlimit:10;" d="M 328.742188 657.636719 L 328.847656 658.871094 " transform="matrix(1,0,0,-1,-261,727)"/>
<path style="fill:none;stroke-width:0.8;stroke-linecap:round;stroke-linejoin:round;stroke:rgb(0%,59.2%,90.2%);stroke-opacity:1;stroke-miterlimit:10;" d="M 329.011719 661.78125 L 329.183594 662.804688 L 329.4375 663.601563 " transform="matrix(1,0,0,-1,-261,727)"/>
<path style="fill:none;stroke-width:0.8;stroke-linecap:round;stroke-linejoin:round;stroke:rgb(0%,59.2%,90.2%);stroke-opacity:1;stroke-miterlimit:10;" d="M 330.519531 665.292969 L 330.503906 665.273438 L 330.867188 665.652344 L 331.363281 666.09375 L 332.328125 666.800781 " transform="matrix(1,0,0,-1,-261,727)"/>
<path style="fill:none;stroke-width:0.8;stroke-linecap:round;stroke-linejoin:round;stroke:rgb(0%,59.2%,90.2%);stroke-opacity:1;stroke-miterlimit:10;" d="M 333.847656 667.6875 L 335.382813 668.476563 " transform="matrix(1,0,0,-1,-261,727)"/>
<path style="fill:none;stroke-width:0.8;stroke-linecap:round;stroke-linejoin:round;stroke:rgb(0%,59.2%,90.2%);stroke-opacity:1;stroke-miterlimit:10;" d="M 337.464844 669.625 L 338.328125 670.199219 L 339.011719 670.726563 " transform="matrix(1,0,0,-1,-261,727)"/>
<path style="fill:none;stroke-width:0.8;stroke-linecap:round;stroke-linejoin:round;stroke:rgb(0%,59.2%,90.2%);stroke-opacity:1;stroke-miterlimit:10;" d="M 340.597656 672.445313 L 341.15625 673.339844 L 341.429688 673.882813 L 341.6875 674.492188 " transform="matrix(1,0,0,-1,-261,727)"/>
<path style="fill:none;stroke-width:0.8;stroke-linecap:round;stroke-linejoin:round;stroke:rgb(0%,59.2%,90.2%);stroke-opacity:1;stroke-miterlimit:10;" d="M 342.238281 677.410156 L 342.238281 677.304688 L 342.191406 678.066406 L 342.070313 678.691406 L 341.847656 679.347656 L 341.53125 679.953125 L 341.558594 679.90625 " transform="matrix(1,0,0,-1,-261,727)"/>
<path style="fill:none;stroke-width:0.8;stroke-linecap:round;stroke-linejoin:round;stroke:rgb(0%,59.2%,90.2%);stroke-opacity:1;stroke-miterlimit:10;" d="M 337.339844 682.867188 L 338.335938 682.488281 L 339.292969 682.011719 " transform="matrix(1,0,0,-1,-261,727)"/>
<path style="fill:none;stroke-width:0.8;stroke-linecap:round;stroke-linejoin:round;stroke:rgb(0%,59.2%,90.2%);stroke-opacity:1;stroke-miterlimit:10;" d="M 334.445313 683.550781 L 332.125 683.867188 " transform="matrix(1,0,0,-1,-261,727)"/>
<path style="fill:none;stroke-width:0.8;stroke-linecap:round;stroke-linejoin:round;stroke:rgb(0%,59.2%,90.2%);stroke-opacity:1;stroke-miterlimit:10;" d="M 327.007813 684.714844 L 328.070313 684.464844 L 329.46875 684.214844 " transform="matrix(1,0,0,-1,-261,727)"/>
<path style="fill:none;stroke-width:0.8;stroke-linecap:round;stroke-linejoin:round;stroke:rgb(0%,59.2%,90.2%);stroke-opacity:1;stroke-miterlimit:10;" d="M 322.394531 686.953125 L 323.0625 686.5 L 323.722656 686.097656 " transform="matrix(1,0,0,-1,-261,727)"/>
<path style="fill:none;stroke-width:0.8;stroke-linecap:round;stroke-linejoin:round;stroke:rgb(0%,59.2%,90.2%);stroke-opacity:1;stroke-miterlimit:10;" d="M 318.433594 690.414063 L 319.589844 689.285156 " transform="matrix(1,0,0,-1,-261,727)"/>
<path style="fill:none;stroke-width:0.8;stroke-linecap:round;stroke-linejoin:round;stroke:rgb(0%,59.2%,90.2%);stroke-opacity:1;stroke-miterlimit:10;" d="M 315.347656 694.433594 L 315.960938 693.441406 L 316.566406 692.578125 " transform="matrix(1,0,0,-1,-261,727)"/>
<path style="fill:none;stroke-width:0.8;stroke-linecap:round;stroke-linejoin:round;stroke:rgb(0%,59.2%,90.2%);stroke-opacity:1;stroke-miterlimit:10;" d="M 314.335938 696.597656 L 313.984375 697.632813 L 313.675781 698.703125 " transform="matrix(1,0,0,-1,-261,727)"/>
<path style="fill:none;stroke-width:0.8;stroke-linecap:round;stroke-linejoin:round;stroke:rgb(0%,59.2%,90.2%);stroke-opacity:1;stroke-miterlimit:10;" d="M 313.09375 701.355469 L 312.824219 702.871094 " transform="matrix(1,0,0,-1,-261,727)"/>
<path style="fill:none;stroke-width:0.8;stroke-linecap:round;stroke-linejoin:round;stroke:rgb(0%,59.2%,90.2%);stroke-opacity:1;stroke-miterlimit:10;" d="M 312.460938 705.011719 L 312.234375 706.214844 " transform="matrix(1,0,0,-1,-261,727)"/>
<path style="fill:none;stroke-width:0.8;stroke-linecap:round;stroke-linejoin:round;stroke:rgb(0%,59.2%,90.2%);stroke-opacity:1;stroke-miterlimit:10;" d="M 311.570313 708.828125 L 311.265625 709.671875 L 310.832031 710.640625 " transform="matrix(1,0,0,-1,-261,727)"/>
<path style="fill:none;stroke-width:0.8;stroke-linecap:round;stroke-linejoin:round;stroke:rgb(0%,59.2%,90.2%);stroke-opacity:1;stroke-miterlimit:10;" d="M 266.445313 723.492188 L 267.070313 723.996094 L 267.746094 724.4375 " transform="matrix(1,0,0,-1,-261,727)"/>
<path style="fill:none;stroke-width:0.8;stroke-linecap:round;stroke-linejoin:round;stroke:rgb(0%,59.2%,90.2%);stroke-opacity:1;stroke-miterlimit:10;" d="M 269.839844 725.253906 L 270.609375 725.394531 L 271.519531 725.464844 " transform="matrix(1,0,0,-1,-261,727)"/>
<path style="fill:none;stroke-width:0.8;stroke-linecap:round;stroke-linejoin:round;stroke:rgb(0%,59.2%,90.2%);stroke-opacity:1;stroke-miterlimit:10;" d="M 273.214844 725.367188 L 274.367188 725.164063 L 275.535156 724.878906 " transform="matrix(1,0,0,-1,-261,727)"/>
<path style="fill:none;stroke-width:0.8;stroke-linecap:round;stroke-linejoin:round;stroke:rgb(0%,59.2%,90.2%);stroke-opacity:1;stroke-miterlimit:10;" d="M 278.054688 724.054688 L 279.398438 723.542969 " transform="matrix(1,0,0,-1,-261,727)"/>
<path style="fill:none;stroke-width:0.8;stroke-linecap:round;stroke-linejoin:round;stroke:rgb(0%,59.2%,90.2%);stroke-opacity:1;stroke-miterlimit:10;" d="M 281.898438 722.757813 L 282.59375 722.679688 L 283.144531 722.695313 L 283.824219 722.8125 L 284.390625 722.996094 " transform="matrix(1,0,0,-1,-261,727)"/>
<path style="fill:none;stroke-width:0.8;stroke-linecap:round;stroke-linejoin:round;stroke:rgb(0%,59.2%,90.2%);stroke-opacity:1;stroke-miterlimit:10;" d="M 286.699219 724.207031 L 287.648438 724.71875 L 288.535156 725.128906 " transform="matrix(1,0,0,-1,-261,727)"/>
<path style="fill:none;stroke-width:0.8;stroke-linecap:round;stroke-linejoin:round;stroke:rgb(0%,59.2%,90.2%);stroke-opacity:1;stroke-miterlimit:10;" d="M 291.054688 725.777344 L 292.015625 725.8125 L 293.171875 725.734375 " transform="matrix(1,0,0,-1,-261,727)"/>
<path style="fill:none;stroke-width:0.8;stroke-linecap:round;stroke-linejoin:round;stroke:rgb(0%,59.2%,90.2%);stroke-opacity:1;stroke-miterlimit:10;" d="M 296.003906 725.027344 L 296.832031 724.679688 L 297.730469 724.210938 " transform="matrix(1,0,0,-1,-261,727)"/>
<path style="fill:none;stroke-width:0.8;stroke-linecap:round;stroke-linejoin:round;stroke:rgb(0%,59.2%,90.2%);stroke-opacity:1;stroke-miterlimit:10;" d="M 299.371094 723.054688 L 299.96875 722.511719 L 300.652344 721.816406 " transform="matrix(1,0,0,-1,-261,727)"/>
<path style="fill:none;stroke-width:0.8;stroke-linecap:round;stroke-linejoin:round;stroke:rgb(0%,59.2%,90.2%);stroke-opacity:1;stroke-miterlimit:10;" d="M 302.679688 719.40625 L 303.992188 717.84375 " transform="matrix(1,0,0,-1,-261,727)"/>
<path style="fill:none;stroke-width:0.8;stroke-linecap:round;stroke-linejoin:round;stroke:rgb(0%,59.2%,90.2%);stroke-opacity:1;stroke-miterlimit:10;" d="M 305.445313 716.382813 L 306.644531 715.316406 " transform="matrix(1,0,0,-1,-261,727)"/>
<path style="fill:none;stroke-width:0.8;stroke-linecap:round;stroke-linejoin:round;stroke:rgb(0%,59.2%,90.2%);stroke-opacity:1;stroke-miterlimit:10;" d="M 308.898438 713.273438 L 309.453125 712.679688 " transform="matrix(1,0,0,-1,-261,727)"/>
<path style="fill:none;stroke-width:1.2;stroke-linecap:butt;stroke-linejoin:round;stroke:rgb(26.7%,74.1%,19.6%);stroke-opacity:1;stroke-miterlimit:10;" d="M 294.746094 675.832031 C 293.753906 669.6875 295.363281 666.84375 294.378906 664.023438 " transform="matrix(1,0,0,-1,-261,727)"/>
<path style="fill:none;stroke-width:1.2;stroke-linecap:round;stroke-linejoin:round;stroke:rgb(26.7%,74.1%,19.6%);stroke-opacity:1;stroke-miterlimit:10;" d="M 294.738281 676.484375 L 294.699219 676.589844 L 294.753906 676.589844 L 294.792969 676.523438 L 294.828125 676.359375 L 294.828125 676.003906 L 294.738281 675.925781 L 294.535156 675.910156 L 294.46875 675.929688 L 294.40625 676.003906 L 294.328125 676.199219 L 294.304688 676.3125 L 294.316406 676.601563 L 294.445313 676.695313 L 294.804688 676.714844 L 294.90625 676.589844 L 294.933594 676.386719 L 294.917969 675.910156 L 294.804688 675.832031 L 294.648438 675.832031 L 294.558594 675.871094 L 294.484375 675.960938 L 294.40625 676.082031 L 294.34375 676.304688 L 294.34375 676.476563 L 294.367188 676.535156 L 294.433594 676.570313 L 294.726563 676.578125 L 294.792969 676.449219 L 294.804688 676.109375 L 294.699219 676.035156 L 294.597656 676.035156 L 294.546875 676.109375 L 294.496094 676.324219 L 294.496094 676.589844 L 294.636719 676.621094 " transform="matrix(1,0,0,-1,-261,727)"/>
<path style="fill:none;stroke-width:1.2;stroke-linecap:round;stroke-linejoin:round;stroke:rgb(26.7%,74.1%,19.6%);stroke-opacity:1;stroke-miterlimit:10;" d="M 293.085938 666.699219 L 293.417969 666.601563 L 293.929688 666.25 L 294.070313 666.097656 L 294.367188 665.597656 L 294.429688 665.433594 L 294.496094 665.148438 L 294.496094 664.535156 L 294.535156 664.726563 L 294.675781 664.992188 L 295.019531 665.542969 L 295.316406 665.953125 L 295.984375 666.582031 L 296.148438 666.699219 L 296.265625 666.726563 L 296.292969 666.621094 " transform="matrix(1,0,0,-1,-261,727)"/>
<path style="fill:none;stroke-width:1.2;stroke-linecap:round;stroke-linejoin:round;stroke:rgb(26.7%,74.1%,19.6%);stroke-opacity:1;stroke-miterlimit:10;" d="M 294.082031 676.425781 L 294.082031 676.589844 L 294.148438 676.707031 L 294.28125 676.804688 L 294.449219 676.804688 L 294.515625 676.664063 L 294.550781 676.433594 L 294.550781 676.03125 L 294.484375 675.996094 L 294.066406 675.972656 L 294 676.023438 L 293.949219 676.082031 L 293.917969 676.246094 L 293.917969 676.460938 L 294.148438 676.761719 L 294.332031 676.835938 L 294.582031 676.835938 L 294.800781 676.699219 L 295 676.441406 L 295.117188 676.125 L 295.148438 675.585938 L 295.101563 675.492188 L 294.914063 675.378906 L 294.550781 675.363281 L 294.351563 675.566406 L 294.265625 675.722656 L 294.214844 676.058594 L 294.214844 676.390625 L 294.316406 676.675781 L 294.53125 676.847656 L 294.648438 676.886719 L 295.050781 676.914063 L 295.164063 676.742188 L 295.214844 676.46875 L 295.214844 675.902344 L 295.066406 675.714844 L 294.851563 675.609375 L 294.5 675.59375 L 294.414063 675.601563 L 294.28125 675.765625 L 294.265625 676.246094 L 294.316406 676.367188 L 294.464844 676.527344 L 294.632813 676.5625 L 294.683594 676.46875 L 294.664063 676.1875 L 294.582031 676.117188 L 294.398438 676.074219 L 294.234375 676.082031 L 294.183594 676.160156 " transform="matrix(1,0,0,-1,-261,727)"/>
<path style="fill:none;stroke-width:0.8;stroke-linecap:round;stroke-linejoin:round;stroke:rgb(20.8%,23.1%,28.2%);stroke-opacity:1;stroke-miterlimit:10;" d="M 295.328125 664.023438 L 294.378906 664.023438 L 293.957031 663.847656 L 293.699219 663.660156 L 293.496094 663.4375 L 293.394531 663.265625 L 293.238281 662.976563 L 293.136719 662.699219 L 293.109375 662.289063 L 293.160156 662.144531 L 293.226563 662.070313 L 293.625 661.761719 L 293.945313 661.644531 L 294.6875 661.628906 L 294.84375 661.683594 L 294.96875 661.769531 L 295.164063 661.972656 L 295.417969 662.347656 L 295.597656 662.828125 L 295.648438 663.296875 L 295.648438 663.761719 L 295.546875 663.925781 L 295.507813 663.945313 " transform="matrix(1,0,0,-1,-261,727)"/>
<path style="fill:none;stroke-width:1.2;stroke-linecap:round;stroke-linejoin:round;stroke:rgb(0%,59.2%,90.2%);stroke-opacity:1;stroke-miterlimit:10;" d="M 315.617188 655.953125 L 315.785156 656.097656 L 315.914063 656.132813 L 316.15625 656.125 L 316.246094 656.027344 L 316.261719 655.566406 L 316.132813 655.308594 L 315.976563 655.160156 L 315.65625 655.148438 L 315.476563 655.292969 L 315.402344 655.425781 L 315.386719 655.503906 L 315.386719 655.761719 L 315.441406 655.941406 L 315.554688 656.09375 L 315.710938 656.21875 L 316.082031 656.382813 L 316.515625 656.394531 L 316.632813 656.296875 L 316.722656 656.136719 L 316.761719 655.933594 L 316.761719 655.273438 L 316.582031 654.984375 L 316.515625 654.917969 L 316.363281 654.859375 L 316.117188 654.867188 L 316.03125 654.925781 L 315.824219 655.242188 L 315.710938 655.675781 L 315.710938 656.136719 L 315.773438 656.222656 L 315.914063 656.375 L 316.015625 656.441406 L 316.351563 656.558594 L 316.683594 656.566406 L 316.761719 656.527344 L 316.863281 656.394531 L 316.914063 656.183594 L 316.914063 655.347656 L 316.761719 655.089844 L 316.59375 654.972656 L 316.414063 654.925781 L 316.222656 654.925781 L 316.144531 654.976563 L 316.003906 655.15625 L 315.941406 655.371094 L 315.941406 655.722656 L 316.015625 655.925781 L 316.234375 656.164063 L 316.414063 656.265625 L 316.734375 656.335938 L 317.132813 656.347656 L 317.183594 656.328125 L 317.246094 656.222656 L 317.285156 656.058594 L 317.300781 655.539063 L 317.273438 655.4375 L 317.121094 655.195313 L 317.015625 655.082031 L 316.902344 655.023438 L 316.671875 655.011719 L 316.605469 655.042969 L 316.515625 655.203125 L 316.476563 655.421875 L 316.476563 655.78125 L 316.53125 655.988281 L 316.632813 656.136719 L 316.839844 656.269531 L 317.082031 656.308594 L 317.441406 656.308594 L 317.492188 656.277344 L 317.53125 656.238281 L 317.582031 656.046875 L 317.570313 655.523438 L 317.390625 655.242188 L 317.234375 655.097656 L 317.082031 655.011719 L 316.863281 654.996094 L 316.785156 655.035156 L 316.683594 655.183594 L 316.65625 655.757813 L 316.710938 656 L 316.839844 656.203125 L 317.195313 656.507813 L 317.429688 656.585938 L 317.734375 656.59375 L 317.785156 656.476563 L 317.800781 656.296875 L 317.800781 655.960938 L 317.761719 655.84375 L 317.605469 655.492188 L 317.480469 655.289063 L 317.273438 655.050781 L 317.132813 654.945313 L 317.066406 654.917969 L 316.839844 654.910156 L 316.734375 655.023438 L 316.65625 655.289063 L 316.65625 655.570313 L 316.710938 655.757813 L 316.824219 655.914063 L 317.03125 656.070313 L 317.429688 656.097656 L 317.480469 656.058594 L 317.542969 655.933594 L 317.554688 655.546875 L 317.53125 655.445313 L 317.375 655.175781 L 317.144531 654.890625 L 316.890625 654.714844 L 316.621094 654.648438 L 316.300781 654.667969 L 315.902344 654.957031 L 315.503906 655.042969 L 315.210938 655.175781 L 314.886719 655.472656 L 314.824219 655.632813 L 314.824219 655.90625 L 315.144531 656.230469 L 315.761719 656.585938 L 316.117188 656.625 L 316.425781 656.738281 L 316.722656 656.738281 L 316.964844 656.691406 L 317.183594 656.535156 L 317.339844 656.453125 L 317.402344 656.453125 L 317.429688 656.730469 L 317.390625 656.777344 L 317.121094 656.941406 L 316.476563 657.0625 L 316.246094 657.175781 L 315.800781 657.1875 L 315.65625 657.148438 L 315.273438 656.917969 L 314.925781 656.59375 L 314.875 656.5 L 314.734375 655.953125 L 314.734375 655.632813 L 314.824219 655.386719 L 315.078125 655.082031 L 315.324219 654.890625 L 315.722656 654.679688 L 316.414063 654.589844 L 316.890625 654.582031 L 317.183594 654.675781 L 317.515625 654.910156 L 317.746094 655.15625 L 318.054688 656.039063 L 318.054688 656.15625 L 317.785156 656.316406 " transform="matrix(1,0,0,-1,-261,727)"/>
<path style="fill:none;stroke-width:1.2;stroke-linecap:round;stroke-linejoin:round;stroke:rgb(0%,59.2%,90.2%);stroke-opacity:1;stroke-miterlimit:10;" d="M 329.8125 674.210938 L 330.453125 674.214844 L 330.542969 674.117188 L 330.621094 673.878906 L 330.621094 673.515625 L 330.582031 673.402344 L 330.503906 673.324219 L 330.222656 673.3125 L 329.953125 673.496094 L 329.839844 673.746094 L 329.785156 674.144531 L 329.785156 674.453125 L 329.839844 674.519531 L 330.222656 674.691406 L 330.554688 674.710938 L 330.8125 674.511719 L 330.914063 674.394531 L 330.980469 674.289063 L 331.132813 673.847656 L 331.132813 673.296875 L 331.03125 673.046875 L 330.96875 672.96875 L 330.734375 672.816406 L 330.300781 672.683594 L 330.09375 672.65625 L 329.953125 672.664063 L 329.863281 672.738281 L 329.65625 672.769531 L 329.503906 673.027344 L 329.476563 674.230469 L 329.605469 674.511719 L 329.695313 674.636719 L 329.914063 674.789063 L 330.710938 674.796875 L 331.03125 674.527344 L 331.183594 674.433594 L 331.324219 674.28125 L 331.390625 674.003906 L 331.390625 673.304688 L 331.351563 673.144531 L 331.222656 672.875 L 331.070313 672.671875 L 330.722656 672.46875 L 330.453125 672.421875 L 329.710938 672.421875 L 329.453125 672.570313 L 329.246094 672.816406 L 329.183594 672.960938 L 329.117188 673.316406 L 329.117188 674.0625 L 329.195313 674.433594 L 329.351563 674.597656 L 329.542969 674.695313 L 329.800781 674.730469 L 330.519531 674.71875 L 330.660156 674.683594 L 330.734375 674.539063 " transform="matrix(1,0,0,-1,-261,727)"/>
<path style="fill:none;stroke-width:1.2;stroke-linecap:round;stroke-linejoin:round;stroke:rgb(0%,59.2%,90.2%);stroke-opacity:1;stroke-miterlimit:10;" d="M 292.296875 714.332031 L 292.128906 714.347656 L 292.039063 714.398438 L 291.988281 714.492188 L 291.988281 714.789063 L 292.078125 714.886719 L 292.167969 714.945313 L 292.375 715.011719 L 292.722656 715.011719 L 292.914063 714.894531 L 292.964844 714.792969 L 293.015625 714.550781 L 293.027344 714.027344 L 292.863281 713.816406 L 292.667969 713.738281 L 292.21875 713.726563 L 291.847656 713.679688 L 291.503906 713.691406 L 291.234375 713.878906 L 291.207031 713.929688 L 291.09375 714.3125 L 291.09375 714.578125 L 291.347656 714.894531 L 291.910156 715.316406 L 292.246094 715.402344 L 292.808594 715.394531 L 293.144531 715.257813 L 293.273438 715.144531 L 293.488281 714.871094 L 293.632813 714.589844 L 293.671875 714.429688 L 293.683594 713.929688 L 293.527344 713.664063 L 293.375 713.546875 L 293.207031 713.476563 L 292.824219 713.382813 L 292.144531 713.351563 L 291.707031 713.605469 L 291.539063 713.738281 L 291.347656 713.832031 L 291.21875 713.921875 L 291.09375 714.070313 L 291.015625 714.246094 L 291.003906 714.359375 L 291.027344 714.714844 L 291.078125 714.839844 L 291.269531 715.039063 L 291.605469 715.25 L 291.734375 715.289063 L 292.128906 715.328125 L 292.746094 715.335938 L 293.335938 715.105469 L 293.683594 714.90625 L 294.042969 714.773438 L 294.171875 714.695313 L 294.273438 714.558594 L 294.261719 714.273438 L 294.171875 714.152344 L 293.902344 713.9375 L 293.4375 713.679688 L 292.785156 713.394531 L 292.246094 713.296875 L 291.835938 713.316406 L 291.269531 713.699219 L 291.144531 713.757813 L 291.09375 713.832031 L 291.015625 714.074219 L 290.964844 714.148438 L 290.859375 714.214844 " transform="matrix(1,0,0,-1,-261,727)"/>
<path style="fill:none;stroke-width:0.8;stroke-linecap:round;stroke-linejoin:round;stroke:rgb(0%,59.2%,90.2%);stroke-opacity:1;stroke-miterlimit:10;" d="M 305.164063 686.945313 L 305.53125 687.085938 L 305.617188 687.085938 L 305.714844 686.929688 L 305.78125 686.722656 L 305.816406 686.113281 L 305.632813 685.890625 L 305.480469 685.832031 L 305.25 685.832031 L 305.097656 686.019531 L 305 686.277344 L 304.964844 686.886719 L 305.066406 687.160156 L 305.148438 687.28125 L 305.5 687.53125 L 305.964844 687.574219 L 306.132813 687.394531 L 306.265625 687.136719 L 306.300781 686.996094 L 306.300781 686.382813 L 306.265625 686.226563 L 306.199219 686.082031 L 306.015625 685.859375 L 305.816406 685.730469 L 305.699219 685.703125 L 305.398438 685.710938 L 305.214844 685.96875 L 305.117188 686.339844 L 305.097656 687.085938 L 305.183594 687.214844 L 305.414063 687.394531 L 305.800781 687.46875 L 306.132813 687.460938 L 306.332031 687.101563 L 306.367188 686.164063 L 306.199219 685.867188 L 306.097656 685.753906 L 305.867188 685.609375 L 305.75 685.574219 L 305.347656 685.574219 L 305.097656 685.761719 L 304.964844 686.027344 L 304.949219 686.183594 L 304.949219 686.507813 L 305.015625 686.679688 L 305.265625 686.996094 L 305.765625 687.28125 L 306.199219 687.308594 L 306.332031 687.109375 L 306.414063 686.628906 L 306.414063 686.261719 L 306.367188 686.089844 L 306.28125 685.933594 L 306.03125 685.695313 L 305.714844 685.574219 L 305.164063 685.609375 L 304.816406 685.859375 L 304.597656 686.226563 L 304.53125 686.433594 L 304.566406 687.050781 L 304.699219 687.238281 L 305.066406 687.554688 L 305.632813 687.820313 L 306.132813 687.828125 L 306.265625 687.632813 L 306.332031 687.308594 L 306.347656 686.722656 L 306.316406 686.527344 L 306.214844 686.347656 L 305.914063 686.027344 L 305.730469 685.910156 L 305.515625 685.832031 L 304.867188 685.796875 L 304.484375 686.039063 L 304.234375 686.363281 L 304.199219 686.535156 L 304.199219 686.894531 L 304.28125 687.074219 L 304.433594 687.246094 L 304.632813 687.382813 L 305.097656 687.554688 L 305.332031 687.582031 L 305.898438 687.574219 L 306.050781 687.46875 L 306.28125 687.171875 L 306.433594 686.792969 L 306.53125 686.40625 L 306.53125 685.773438 L 306.5 685.679688 L 306.433594 685.601563 L 306.25 685.523438 L 306 685.523438 L 305.867188 685.609375 L 305.632813 685.925781 L 305.566406 686.125 L 305.550781 686.707031 L 305.632813 686.894531 L 305.882813 687.222656 L 306.230469 687.453125 L 306.582031 687.5625 L 306.980469 687.582031 L 307.082031 687.53125 L 307.183594 687.402344 L 307.265625 687.039063 L 307.265625 686.371094 L 307.214844 686.175781 L 307.132813 686.003906 L 306.898438 685.746094 L 306.78125 685.667969 L 306.648438 685.644531 L 306.332031 685.644531 L 306.148438 685.703125 L 305.832031 686.039063 L 305.648438 686.492188 L 305.617188 687.109375 L 305.699219 687.273438 L 305.949219 687.496094 L 306.183594 687.5625 L 306.433594 687.546875 L 306.566406 687.339844 L 306.597656 687.203125 L 306.597656 686.355469 L 306.414063 686.082031 L 306.300781 685.976563 L 306.050781 685.875 L 305.582031 685.902344 L 305.300781 686.164063 L 305.117188 686.5 L 305.082031 686.953125 L 305.164063 687.085938 L 305.414063 687.289063 L 305.664063 687.367188 L 305.832031 687.367188 L 305.898438 687.339844 L 305.964844 687.117188 L 305.933594 686.636719 L 305.832031 686.484375 L 305.550781 686.242188 L 305.382813 686.164063 L 305.214844 686.113281 L 304.699219 686.097656 " transform="matrix(1,0,0,-1,-261,727)"/>
<path style="fill:none;stroke-width:0.8;stroke-linecap:round;stroke-linejoin:round;stroke:rgb(0%,59.2%,90.2%);stroke-opacity:1;stroke-miterlimit:10;" d="M 271.136719 714.664063 L 271.703125 714.761719 L 271.953125 714.761719 L 272.050781 714.71875 L 272.300781 714.433594 L 272.484375 714.039063 L 272.503906 713.570313 L 272.417969 713.363281 L 272.050781 713.183594 L 271.46875 713.203125 L 271.21875 713.527344 L 271.152344 713.816406 L 271.152344 714.28125 L 271.234375 714.425781 L 271.46875 714.65625 L 271.902344 714.855469 L 272.367188 714.863281 L 272.570313 714.640625 L 272.703125 714.316406 L 272.71875 714.125 L 272.71875 713.5625 L 272.6875 713.398438 L 272.601563 713.269531 L 272.402344 713.082031 L 272.269531 713.039063 L 271.769531 713.023438 L 271.4375 713.226563 L 271.304688 713.390625 L 271.136719 713.785156 L 271.117188 714.382813 L 271.320313 714.683594 L 271.601563 714.847656 L 272.003906 714.871094 L 272.101563 714.828125 L 272.351563 714.347656 L 272.402344 714.117188 L 272.4375 713.191406 L 272.367188 713.003906 L 272.269531 712.859375 L 271.96875 712.660156 L 271.800781 712.628906 L 271.402344 712.628906 L 271.203125 712.671875 L 271.019531 712.78125 L 270.867188 712.9375 L 270.769531 713.117188 L 270.703125 713.320313 L 270.703125 713.75 L 270.734375 713.953125 L 270.867188 714.152344 L 271.035156 714.332031 L 271.46875 714.621094 L 271.886719 714.761719 L 272.300781 714.742188 L 272.402344 714.640625 L 272.535156 714.332031 L 272.617188 713.964844 L 272.617188 713.347656 L 272.4375 713.210938 L 271.96875 713.210938 L 271.785156 713.328125 L 271.46875 713.671875 L 271.335938 714.058594 L 271.335938 714.425781 L 271.402344 714.578125 L 271.6875 714.792969 L 272.035156 714.898438 L 272.4375 714.90625 L 272.519531 714.847656 L 272.652344 714.632813 L 272.6875 714.496094 L 272.667969 713.859375 L 272.585938 713.785156 L 272.46875 713.75 L 271.953125 713.765625 L 271.800781 713.871094 L 271.652344 713.988281 L 271.570313 714.117188 L 271.535156 714.453125 L 271.617188 714.554688 L 271.867188 714.710938 L 272.136719 714.769531 L 272.320313 714.769531 L 272.367188 714.726563 L 272.46875 714.484375 L 272.484375 713.929688 L 272.335938 713.765625 L 272.234375 713.742188 L 271.984375 713.742188 L 271.867188 713.773438 L 271.769531 713.859375 L 271.6875 714.066406 L 271.6875 714.28125 L 271.734375 714.382813 L 271.984375 714.5625 L 272.136719 714.613281 L 272.503906 714.640625 L 272.601563 714.441406 L 272.636719 714.167969 L 272.617188 713.800781 L 272.269531 713.800781 L 272.152344 713.859375 L 271.96875 714.066406 L 271.953125 714.359375 L 271.96875 714.433594 L 272.070313 714.496094 L 272.300781 714.5625 L 272.601563 714.570313 L 272.667969 714.511719 L 272.800781 714.253906 L 272.886719 713.828125 L 272.886719 713.570313 L 272.753906 713.476563 L 272.367188 713.46875 L 272.203125 713.535156 L 271.9375 713.808594 L 271.785156 714.117188 L 271.785156 714.375 L 271.96875 714.554688 L 272.300781 714.648438 L 272.769531 714.664063 L 273.003906 714.511719 L 273.203125 714.085938 L 273.203125 713.433594 L 273.003906 713.304688 L 272.535156 713.285156 L 272.21875 713.46875 L 272.050781 713.742188 L 272.035156 714.179688 L 272.253906 714.410156 L 272.550781 714.554688 L 272.6875 714.578125 L 272.953125 714.589844 L 273.117188 714.273438 L 273.234375 713.886719 L 273.070313 713.929688 L 272.886719 714.136719 L 272.769531 714.382813 L 272.667969 714.992188 L 272.550781 715.152344 L 272.367188 715.214844 L 271.800781 715.246094 L 271.6875 715.144531 L 271.234375 714.613281 L 271.085938 714.324219 L 271.003906 713.972656 L 271.003906 713.613281 L 271.152344 713.40625 L 271.367188 713.234375 L 271.820313 712.996094 L 272.003906 712.851563 L 272.203125 712.789063 L 272.203125 713.109375 L 272.167969 713.183594 L 272.003906 713.269531 L 271.6875 713.296875 L 271.417969 713.382813 L 271.351563 713.554688 L 271.019531 714.09375 L 270.984375 714.253906 L 271.003906 714.453125 L 271.101563 714.519531 L 271.617188 714.820313 L 271.917969 714.949219 L 272.003906 714.941406 L 272.019531 714.195313 L 271.902344 714.058594 L 271.6875 713.980469 L 271.101563 713.980469 L 270.820313 714.144531 L 270.703125 714.246094 L 270.601563 714.476563 L 270.601563 714.761719 L 270.667969 714.835938 L 270.867188 714.972656 L 271.269531 715.042969 L 271.484375 715.042969 L 271.601563 714.90625 L 271.667969 714.640625 L 271.652344 714.136719 L 271.4375 714.03125 L 270.953125 714.058594 " transform="matrix(1,0,0,-1,-261,727)"/>
</g>
</svg>
